<?xml version="1.0" encoding="UTF-8"?>
<svg id="Layer_1" xmlns="http://www.w3.org/2000/svg" version="1.1" viewBox="0 0 504 494">
  <!-- Generator: Adobe Illustrator 29.4.0, SVG Export Plug-In . SVG Version: 2.1.0 Build 152)  -->
  <defs>
    <style>
      .st0 {
        fill: #efefef;
      }

      .st1 {
        fill: #ff0004;
        fill-rule: evenodd;
      }
    </style>
  </defs>
  <path class="st0" d="M253.2,276.8l.3-3.1v-11.9l-.3-2.3v-5.4l1.6-3.8h-.1s0-1.9,0-1.9l-.3-1.9-1.9-3.1-.3.4c-.7-.4-1.3-.8-1.6-1.9l-1.3-1.1-.7.4c-.7,0-1-.8-1-1.9l-.3-1.9h-.7l-1.3-.8h-1c-.7,0-1.3.4-1.3.8h-.7c-1,0-1.6-.4-1.3-1.5l-1,.4-2.6-.4-1.9.4-.3-.4h-.3v.8l-.7-.8-1,.4h-1l-1.3.4h-.7l-5.8,1.9h-.7l-3.8,1.1h-1l-.7.4-2.2,1.1h-.3l-1.3,1.1-.7-.4-.3.4-1-.4h-1l-3.8.8-1.6.8h-.7l-1.9.8-2.2.4c-.3,0-1,.4-1.3.8l-1.9.8c-1.3.8-2.2,1.5-2.9,2.7v7.7l-.3,2.7,1.3,3.1,1,6.5-.3,3.8-.3,1.9.3,2.3-.3,1.9.3,3.4-1,10.7v2.7c.3,1.5.3,2.3,0,2.7v6.2l-.3,2.3v2.3l-.3,2.3c.3,1.5.3,2.3,0,2.3l-1,5.7v2.3l-.3,2.3v2.7l-.3,2.3v4.6l-.3,1.9v3.1c-.7,1.1-.7,2.3-.3,3.1.7,2.3.7,4.6.3,6.9l1,2.7.3,2.3v5.7c-.3,1.1-.3,1.9.3,1.9l1.9,5.7,2.9,4.6,2.9.8,5.8-1.1h.3l3.8-3.4,2.9-1.1h3.5l1,.4,3.2-1.1h.7l1.6-.8,1.6-2.7c0-1.1.7-2.3,1.6-3.4,0-1.5.3-2.7,1.3-3.1h.3c-.3-1.1,0-1.9,1.3-2.3l2.9-4.2,1.9-4.6.3-2.3,4.8-13.8,1-2.7,1-2.3,1.3-5.4,1-8.5.7-2.3.7-5,1.3-1.9-.3-2.7,2.9-7.7.7-2.7c-.3-.4-.3-1.1.3-1.9l.7-4.2-.3-1.9c-.3-.8,0-1.5.7-2.7ZM298,57.6l-1.9,1.1-1.3,1.5-1.6-.4h-.7l-1.9-.8-.7-.4-1.3,1.1h-.7v-.4l-.7.8-1-.4h-.3l-.7,1.1-.7.8-1.3-.4-1.9-1.1h-.3l-2.9,1.1-1.9,2.3-1.3.8-1.9-.4-.7-.4-1.9,1.5c0,1.1-.7,1.9-1.6,1.5l-1.6.8-1.9.4-1.3-.4-.3-.8h-.3l-.3.4v-.4l-1.9,1.1-.7,1.5-.7-.4-1.9-.4h-1.3l-.3.4-.7-.8-1.9-1.1-1.6-.4-2.9.8v.4h-.3l-.3.4-.3.8-1.3.4-1-1.1-1.6.8-1.3,1.5-1.3,4.2-.7,3.8-1.3,3.8c.7,1.1,1,1.9.3,2.3l-.3,2.3v1.9l-.3,2.3.7,3.8c-.3.4-.3,1.1,0,2.3l.7,1.9-.7,1.5v1.9l-.3.8h.3l.3.8-.7,1.9.7,3.4-.3,2.7.3,6.2-.3,1.1v1.9c-.3.8-.7,1.9-.3,3.4l-.3,2.7c-.3.8-.3,1.5,0,2.7v4.2l-.3,1.9v1.9l.3,2.3v4.2c1,.8,1.3,1.5.7,2.7-.7,0-1.3.8-1.3,1.9h.3l-.7,3.8.3,3.8v1.9l.3,1.9c0,.4.3,1.1.7,1.9l-.3,1.9v2.3l.7,5.7v2.3h.3v2.3l.3,1.1v.4l.3,1.5-.3-.4v1.5l.7,2.3.7,1.5,1.3,1.5.3-.4,3.2,1.5.3-.4,1.3.4.3-.4c1.3,0,1.9,0,1.9-.8l1.3-1.1h.3l1.3.8,1.6.8h.7l1.3.8,1.6.8v-.4c.3.4.3.8.7.4l.7-.4.3.4,1.3.4.7-.4,1.6-.4.3.4,1-.8.3-2.7,2.2-.4,2.3-.8c.7-.8,1.3-1.1,2.2-1.1v-.8l1-.4h.3l.3-.4h.3l.3.4.3-.8h.3v-.4h.3v-.4l.6-.7v.4l.7-1.1.7.8.3-.4.3-1.5.7-1.5,2.2-9.2v-2.3c0-.4.3-.8.3-.8h.3v-1.1l.3-.8c0-.4,0-1.1.3-1.1l.3-1.1,1-3.8v-.8l.3-1.5v-3.4l.7-2.7.7-1.1,1.6-6.2.7-1.1.3-1.1c-.3-.8-.3-1.1.3-1.5v-1.5l.3-.8v-1.9l.3-1.1v-1.5c-.3,0-.3-.4,0-1.1v-.8l.3-1.1v-.8c.7-.4,1-.4,1.3-.4h.7l1,1.1h1l.7.4,1.9,2.3,5.1,3.1h1.9l.7,1.9c1.6.8,2.6,1.9,3.2,3.1l2.6,1.9,3.5,1.1c.3,1.5,1.3,2.3,2.9,2.7l4.5,3.1,1.9.8c1.3.4,2.6.8,3.2,1.9l3.2.8,2.3,1.9h.7l3.2-.8,2.6,3.1h1.6l.7.4,1,.4,1-.4,2.9-2.3h4.5l2.2.4,2.2-.8,1.9.8,1.9-.8c1.9,0,2.9-.8,2.6-1.9,1.3-1.1,2.6-1.9,3.8-2.7l2.9-2.3v-.4l.7-.4.3.4c1.9-.4,3.5-1.5,4.8-3.4l1.9-1.9.7-4.6,1.6-2.7c-.3-1.1-.3-2.3,0-4.2l1.6-4.6,1-6.2,1-3.4v-.8l.3-.4.3-1.1v-3.1l.3-.8v-2.3l.3-1.1.3-.8v-2.3l-.3-1.1.3-1.1v-1.1l.3-.8v-1.1c-.3-.4-.3-1.5,0-2.7l1-5v-2.3l.7-2.3.7-4.6v-1.9l.7-2.7c0-.8.3-1.5.7-2.3l.7-1.9c.7-1.1,1-2.3.3-3.1.7-1.5,1-2.7.3-3.4v-4.2c.3-1.1.7-1.9,1-2.3v-2.3l.3-2.3v-5l.3-1.9c-.3-.8-.3-1.5,0-2.3v-7.3l.7-2.3-.3-2.7v-6.5l-.3-1.9v-.4h-.3l-2.9-.8h-1l-5.8-.8-7.7,2.3c-.2,0-.3-.1-.3-.4l-.3-.4h-.3l-1.3.8-1.9-.4-.3-.4-2.2.8v.4l-1-.8h-.7l-1.3,1.1-1.9.4-3.2,2.3c-.7.4-1,.8-1,1.5h-1.9l-.7.4-.7-.4h-4.5l-.7.4-1.6-.4-.7.4-1.6-.4h-3.2l-.3.8-1.3.4-2.6-.4h-2.2c0,.4-.3.4-.7.4l-1-.4-1.3-1.1-2.2.8v-.2c0,0-1.5,1.1-1.5,1.1l-.3,2.3h.3v4.6l-.3,1.9v9.6c-.3,1.1-.3,1.9-.3,2.3-.3,1.1-.7,2.3-.3,2.7l.3,2.3v1.9c1,1.1,1,1.9,0,2.3v6.9c0,1.1,0,1.5.3,1.9l-.7,1.5.7,1.1-.7,1.9-1,1.9-.3,5.7-2.2-1.5-9.3-8-4.8-5.4-1.9-.8-.7-1.1-1.6-2.3-1.6-1.5-1.9-1.1-1.9-.4ZM135.9,402.1l1.9-1.1h.7l1.6-1.1.7.4.3.4,1.9-1.5.3.4c0-.4.7-.8,1.9-.8h.3l2.2-1.5v.4l.7-.4,3.5-1.5,5.1-3.4h.3l1-.8h.3l1.6-1.1,1.6-.8,1.6-1.1c.7-.8,1-1.5,1.6-1.5l1.9-1.1,3.2-3.1c1.6-1.5,2.2-3.4,2.2-5.4l1.3-1.5c-.7-1.5-.3-3.1.3-5.4-.7-.4-1-.8-1-1.9l1.6-3.1c1-.8,1.3-1.9,1.6-3.4l.7-.4.7-3.1,1.9-1.9,2.2-1.5,4.8-5.4.7-2.3c-.3-.8,0-1.5.7-1.9-.3-.8-.3-1.1,0-1.9l-2.2-5-1.6-2.3.3-.8-1.9-1.5c-.3-1.1-1-1.9-1.6-1.9h-1.3l-1-.4-2.6.8-8,5.4h-1.9l-1.3,1.1-1.6.8c-.7.8-1.3,1.1-1.9,1.1l-1.9.8h-.7c-.3,0-1,.4-1.3.8l-3.2,1.5h-.3l-1.6,1.5-3.5,1.1-1.6,1.1-1.3.8-.7-.4-1.9,1.1-1.9.8h-.3l-3.5,1.5-1.6,1.1-.3-.4-.7-.4-1.3,1.5h-.3l-1.3.8h-.7l-1.3.4-1,.4-1-.4-1,.8-.7-.4-6.1,1.1h-1c-.7-.4-1,0-1.6.8h-1.3c-.7,0-1,0-1,.4l-3.2.8-1.6-.4h-1.6l-.3.4-.3-.4-3.5-.8-.7.4-.3-.8h-.3l-.3-1.5,1-2.3,1.3-1.5c.3-1.1,1-1.5,1.6-1.5l4.5-5,.7-1.9,1.6-1.1,1.6-2.3,1.6-1.5,1.6-2.3,10.9-8.8,12.2-7.3c1-.8,1.6-1.1,2.6-1.1l2.6-.8,2.6-1.5,10.9-4.6,1.3.4,1-.4,1.6,1.9,1,1.5,1.3.8,2.2.4,1.9-.4,1.3-1.5,2.2-4.2,2.6-6.9c-.7-2.7-.3-5,1-6.9v-.8c1-1.1,1-2.7.3-4.2l.7-1.9v-3.4c1-.8,1.3-1.9,1-3.4l3.2-5.7.7-2.3-.3-6.9.3-2.3c.3-.8,0-1.5-.3-2.3l-1.3-1.5-1.6-.8-1.6-1.1-1.9-.8-1.9-1.1-1,.4-1-.4-5.8-2.3-2.2-.4-1.6.8-.3-.4-2.2.4-1,.4h-1l-1.9.4-10.6,3.1h-.3l-6.7,1.9v1.1l-.7-.8-10.6,4.2-1.9,1.1-2.2,1.1-1.9,1.1h-.3c0,0-1.9,1.1-1.9,1.1-1,0-1.6.4-1.9.8l-1.9,1.5c-1,0-1.6.4-2.2,1.1l-1.6,1.1-1.9,1.5c-.7,0-1.3.4-1.9,1.1l-4.2,2.3-1.6,1.5-2.2,3.1-8.3,7.7-10.6,8.8c-.3.4-.3.8.7,1.5l-1.9,1.9c-1,.4-1.9.8-2.2,1.5l-1.9,1.9-4.2,5.4-1.3,1.1-1.9,3.1-1.3,1.5,1,.4c0,1.1-.7,1.5-1.3,1.5l-3.8,5.4c-1,1.5-1.3,2.7-1,3.1l-.3.8-1.3,1.5-3.5,8.5-.7,2.3-1.3,2.3-1.9,7.7v5l.3,2.3,1.9,4.6.7,2.3c0,.8.7,1.1,1.9.8v1.9l1.3,3.8v1.9c1,.4,1.3.8,1.6,1.5l1.3,1.9.7,2.3,1.3,2.3,1,2.3.7,2.3,1.6,1.9c.7,1.1,1,1.9,1,2.3l1.9,2.3.3,1.1,1,1.5,1.3,2.3,1.9,2.7,1-.8,1.9,2.3-.7,1.1,1.6,1.5h3.2v.8l1-.4h1l1.3.8h1l1,.4,1.3.4h1.6l1,.4,1-.4,1.6.4,1.6-.8.7.4,1.9-.4.7.8.7-.4h1.3l1.9.8h.7l1,.4,1.9.8h1.9l.7.4,2.6-.8,1.6.4,2.9-1.1-.7.8.7.4,5.1-2.3,6.4-1.5c.7-.8,1.3-1.1,2.2-1.1l4.5-1.5c1,0,1.6-.4,2.2-1.1ZM235.6,104.7v-3.8l1-7.3-.3-3.1-1.9-8.8c-2.6-1.5-5.8-2.3-9.3-1.9l-21.5-1.1h-.1c0,0-2.2,0-2.2,0l-19.9,6.9c-2.6.8-4.5,1.9-5.8,3.4l.3.8.3.4v.8c-.7,1.5-1,3.4-.7,5.7l.7,6.5-.3.8-.3,4.2c.7.8.3,1.5-.3,2.3v2.3l-.3,2.7v.8l-.3.8v1.5l-.3.4.3,1.1h-.3c.3.8.3,1.9-.3,3.1l.3.4h-.3v1.5l-.3.8v1.9h.3l-.7,1.9c.7,1.1.3,1.9-.3,2.7l.3.4-.3.4-.3,1.1c.3.4.3,1.1-.3,1.9l-.3.8h.3l-.3,1.1.3,1.9-1.6,8.8c1,1.1.7,2.3-.3,3.1l-1,7.7-1,3.4.3.4-.3,1.5c.7.4.7,1.1-.7,1.9l-.3.8.3,1.1h.3l-.3,1.1v.8l.3.4-.7,2.3.3.4-.3.4.3.4-.3.8h.3l-.3,1.5-.3.8.7.4h-.3l-.3,1.1v1.5l.3.4-.3,1.1c.7.8.3,1.5-.3,2.3l.3.4-.7,1.1.3.4v.8h-.3l.3.4-.7,3.1h.3c-.3.4-.3.8,0,1.1l-.3.4v7.7l-.7,6.5,1.6,6.2c.3,2.3,1.3,4.2,2.9,5.4l1.3.4,4.2-1.9h-.3l1.3-1.1,2.2.4,4.5-1.5-.7-.8,1-.8c1,.4,1.9,1.1,2.6,1.9l1,.4,4.2-1.5c1.9-1.1,3.5-1.9,5.1-2.3l3.5,1.9c1.9-.8,3.5-1.1,4.8-1.5l5.5-1.9v-.8l3.2-1.1c1.3-.8,1.3-1.5,1.3-2.7.7-1.9,1.6-3.4,3.2-4.6v-.8l1-2.7c.7-.8,1.3-1.9,1.3-3.1l1-1.9-.3-.4,1.3-2.7,1.3-10.3,1-2.7.3-2.3,1.9-8.4,1.6-16.1v-5l.7-2.7v-1.9l.3-1.1h.3l-.3-.8.7-1.1v-2.7c.7-.8,1-1.5.7-2.7l.7-.4h-.3v-1.1l.3-.8.7-1.9h-.3l.3-.8h-.3l1-1.9.3-1.1h-.3l.7-3.1.7-1.5-.3-.8,1-4.6h-.3c1-1.1,1-2.3.7-3.8l.3-.8.7-3.4ZM58.8,288.2h.7l2.9-1.1s.3-.4,1-.8l.7.8,1.3-1.1h.3l7.1-3.4,1,.8h1.9l.7-.8c0-.4,0-.8.3-.8h1l1.3-.4h1.3c-.3-.8.3-1.1,1.3-1.1l1-.8v.4l2.2-1.9,1.9-.4,1.6-1.5,1.9-.4h.7l1.3-1.1,3.5-1.5,1-.8,1-.4,1-.8s.3-.4,1-.8l1-.4,1-.8v.4l3.2-2.3,1-.4,1.3-.8,1-.8.3.4,1.9-1.5,1-.8,1.3-.8,1.3-.4,1.3-.8.7-.4h.3l1-.8c0,.4.3,0,.7-.4l1-.4.7-.8,1-.4,1-.8,1-.4.7-.8,2.9-2.3,1.9-1.1,1-.8c0-.4.3-.8,1-.8,0,0,.3-.4,1-.8l1-.4c0-.4.3-.8,1-.8l1.9-1.5,1-.4,2.9-2.3.7-.8,2.9-2.3.7-.8c0-.4.3-.8,1-.8l1.9-1.5v.4l.7-1.1c.3-.4.7-.8,1-.8l.7-.8,1-.8.7-1.1,1.6-1.5.7-1.1.7-.8.3-.8h.3l.3-1.1.7-.8.3-.8.3-1.1.7-1.1v-1.1l.7-2.7v-3.4l-.3-1.1v-.8l-.3-1.1v-1.1l.7-2.7.7-1.5v-.8l1-2.3,1-.8.3-1.1v-1.1l-1-1.1-1.9-6.9-1.3-1.5-1-.4-1-.8.3-1.1v-1.5l-1.3-1.5-.7-.4-1-.4-.7-.8h-.7v-.4l-2.2-.8-1-.8-2.6-.8h-.3l-.3-.4-5.5-1.9h-1.3l-3.8-1.1-.3.4-1-.4h-1.3l-1.9-.4h-.7l-5.1-1.5h-1.3l-1.3-.8-3.5-1.1-1-.4h-.3l-8-2.7h-1.3l-1.3-.4-3.2-1.5c-.3.4-.3,0-.3-.4h-1.3l-1.3-.4v-.8l4.2-2.3,1.9-1.5v-.4h.7l7.4-5,1.6-1.9,1.6-.8,1.6-1.1,1.6-.8,1.6-1.1,1-1.5,1.9-.8,1.3-1.1,1.6-.8,2.9-2.3,3.8-2.7,1-.8,1.3-.4,1-1.1,1.3-.8,1-.8,4.5-2.3,4.5-.8h.7l1,.8.7-.8v1.1l.3.4.7,2.3,1,1.9,1.3.8h.3l.3,1.1h.3v-.4l.7.4,1,.8c-.7.4-.7,1.1-.7,1.9l-.3,1.9-.7,2.3c-.3.8.3,1.5,1.3,1.9l1,.8,2.9-1.5h.3l.7-.4.3-1.1h.3l1-1.9,1.9-2.7.7-1.9.3-1.9.7-1.1,1.3-2.7,1-1.5,2.6-6.9c0-.4.3-1.1,1-1.9l1.3-3.1v-1.5l-.3-1.9c-.7-1.1-.7-1.5,0-1.5-.3-.4-.3-.8,0-1.5v-1.1h.3l1-5.4c-.7-.8-.7-1.5-.3-1.9l-.3-1.9v.4l-.3-1.9-.7-1.1-.7-1.5-.7-1.1-.7-1.9-1-1.5-.7-1.5-2.2-1.9-3.8-1.1-3.8-.8-.7.4-1-.8-.7.4-1.9-.7h-.7l-.3.4-1.3-.8h-3.2l-.3.4-1-.8h-.1s-1.3.4-1.3.4l-.3-.4h-1.6l-.3.4-1.3-.7-.7.4-1.3-.4-1.6.4h-.7l-1,.4-.3.4v-.4l-1.3-.4-.7.4-1.9.8c-.7,0-1,0-1,.4l-.7.4-.3-.4-1.9.4-1.9.8-1.9.4c-.3.4-.7.8-.7.4l-.7-.4-.7.4-1.9.8h-1s-.7,0-1,.4l-13.5,6.1c0,.8-.7.8-1.6.8l-2.6,1.5h-.7l-.7.4-.7.8v-.4l-3.2,1.5c-1,.4-1.6.8-1.6,1.1l-1.9,1.1h-.7l-1.3.8-1.9.8h-.7l-1.3,1.1-3.8,1.5-1.6,1.1h-.3l-1.6,1.1-.3-.4-1.9,1.1h-.7c-.7,0-1,.4-1.3.8-1,.4-1.3.8-1.6,1.1l-1.6.8c-1,0-1.3.4-1.3,1.1l-1.3.8h-.7l-1,1.1-2.6,1.1-.7.8-2.9,1.9h-.7l-.7.8c-1,0-1.6.4-1.6,1.1l-2.9,1.9-1.6.8h-.7c-.3,0-1,.4-1,1.1l-1.3.8-1.6,1.1-1.3.8-1.6,1.1-1.3,1.1c-.7.8-1.3,1.1-1.6,1.1l-2.9,2.7-1,1.1-1.9,3.4c0,.8,0,1.1-.7,1.9l-3.8,7.7-1.3,1.1-1,1.9c-1,.4-1.3.8-1.3,1.1l.3,2.7c-.7,0-1,.8-1,2.7l-1.6,1.5-.7,2.7v2.7l-3.2,5-.3,1.5-.7,1.1-.7,2.3v1.5l-.7.4-.7,1.5-.7,1.1-.7,3.8,1,3.8v4.2l.3,1.5.7,1.1,3.8,3.4,1.6.8,1.6.4,1.3.8c.3,0,.7.4,1.6.8l1.3.4,1,1.1.3-.4,1.6.8,1.3.4,1.3.8.3.4.3-.4.7.4h.3l1,.4,1,1.1.3-.4,3.5,1.1,1.9.4h.3l2.6,1.5,1-.4,1.3.8.3-.4,1.6.8h.7l1,.4h.7l1,.4,1.3.8.7-.4,1.6.4,1,.8h1l1.3.4,1.6.4h.3l1.3.4,3.2.8,1,.4v.4h.7l2.6.4v.4l1,.4-1.9,2.3-1.3.8v-.4l-1.3,1.1-1.3.4-2.6,1.5c-.3,0-.7.4-1,.8-.3.8-1,1.1-1.3.8l-1,1.1-1.3.4-1,1.1-3.2,1.9-1.9.8-1.9,1.1c-1,0-1.6.4-2.2.8l-1.6.8h-.7c-1,0-1.3.4-1.3,1.1l-1.9,1.1-.3-.4-1.6,1.1v-.4l-1.9,1.1c-.3.8-1,1.1-1.9,1.1h-1.9c-1.3.4-1.9.8-2.2,1.5v-.4h-.7l-1.9.8h-1.9c-.7,0-1,0-1,.4h-1.6l-.3.4h-2.2l-.7.4-1-.8-1,.4h-1.9l-.3.4-1-.8h-.3l-1.3.4-.3-.4-.7.4-1.9-1.1-1.6-1.9-1.6-1.1h-1.3c-.3,0-1,.4-1,.8-.3,1.1-.7,1.5-1.6,1.1l-2.2-.8v.4c-1,0-1.9.4-2.2,1.1-.7.4-1,.8-.7,1.5l-.3,1.9,1,6.2-.3,2.3c-.3.4-.3.8.7,1.5l.7,3.8v1.9l.3,1.9v1.9l1,5.7,1.3,3.8,1,1.9,1,.8-.3,1.1h1.3l1.6-1.1.3,1.5h.3l1.3.8-.3.8,1,1.9,1.6,1.1,1.9.8,1.6,1.1h1.3l1.3.8,1.6.4,1-.4.7.8h1.6l1.9.8,1.6-.8h.3l-.3.4c.3,1.1,1,1.5,1.9,1.5l3.2.8,1.3-.7v.4l.7-.4.7.4.7-.4h.7l.3.4.3-.8,1.6-.4h.3l1-.4h1l1.9-.4,1.6-.8.7.4,3.5-1.5,1.9-.4,3.5-1.5ZM293.4,336.6h1.3l3.5-.8.3.8,1.9-.4,1.3-.8.7.4,1.6-.8c.7,0,1.3.4,1.9,1.1l.3.4h.3l2.2-1.5,1.3-1.9,1-1.9,1.9-3.1,2.6-1.5,3.2-5c.7-1.5,1.3-2.7,1.9-2.7v-.4l1-.8,1.3-2.3,1-2.3c.7-.8.7-1.5.7-1.9-.3-.4-.3-1.1.7-1.5l1-2.3c0-1.5.3-1.9,1-1.9l1.9-4.2c-.3-1.9,0-2.7.7-3.1l.7-3.1,1.9-5.7,1.6-2.3.3-1.5,1-1.9,1.9-5.4c.3-2.3,1.3-4.2,2.6-5.7l.3-1.9-.3-.8,1.9-3.8.7-1.9,1.3-1.9,1.9-1.1h.3c.3,0,1-.4,1.3-.8l5.8-3.4,1.6-1.5,2.2-.8c1,0,1.6-.4,1.9-1.1l2.2-1.1h.3l1.3-1.5,2.9-2.3,2.3-2.7,1.3-6.5v-1.9c0-1.1,0-1.9.3-2.3l.3.4,1.3-4.2,1-1.9-.7-1.5.3-.8v-.4l1-4.2c-.3-.8,0-1.5.7-2.3,0-1.1.3-1.5,1-1.9-.7-1.1-1-1.9-.3-2.3l.7-1.5-.3-1.1v-2.7c-.3-.8,0-1.9.7-2.7l-1-2.3,1.3-6.1c0-2.3.3-4.6,1.3-6.1-.7-1.1-.3-2.3.7-3.1.3-1.5.3-2.7,0-3.8-1.3-.8-1.6-1.5-1.3-2.7l-2.2-1.1-2.2-.4-.7-.4-1.6.8-.7-.4c-1,.4-1.6.4-1.9,1.1l-8.3,3.1-.7-.4c-.7,0-1.3.4-1.9,1.1l-1-.4-2.6,1.1h-.7l-4.2,1.9-.3-.4-1.6,1.1c-.7.4-1.3.8-2.2,1.1h-.7l-2.6,1.1h-.7l-.3-.4-1.3,1.1-.7-.4-1.3,1.1-10,4.2h-.3l-3.8,1.9h-.7l-2.2.4-.7-.4-3.2,2.7h-.7l-5.1,2.3-1.6.4-1.6,1.1c-1,0-1.6,0-1.6.8l-1.6.4-3.2,2.3-3.2.4-3.5,1.5-1.6,1.5-3.8,1.5-3.5,2.3-1.9.8c-.7.4-1,.8-1.3.8h-1l-1.3,1.1h-.7.3s-.7-.4-.7-.4c-.3.4-1,.4-1.3,1.1l-.3-.4c-.7.4-1,.8-1.6,1.9-.7-.4-1,0-1.3.8l-.3-.4c-.3.4-1,.4-1.3,1.1l-1.6,1.1-7.7,2.3c-1,0-1.6.4-1.9,1.5-.3.8,0,1.5.7,1.9h.3l-.3.8h-.3l.7,4.2.7,1.5.3,1.9c0,1.5.3,3.4,1,5.4l-2.6,3.8.7,1.9c-.3.4-.3,1.1.3,1.9l.3,3.8v1.5c0,.8-.3,1.5-.7,1.9l-.3-.4-.3.4c.7,1.1.7,2.3.3,3.4l-.3,3.1.3.8h.3l-1.6,1.5,1,2.7-.7,2.7.3,2.7-.7.8c1,.8,1,1.9,0,2.7v9.2l1,3.1.3-.4.3.8,2.6-.8h.3l2.2-.4,2.2-.8,5.1-.8,2.6-.8,1.3-.4.7.4h.3l1.6-.8h1l1.3-.8.7.4,1-.4c.3-.8.7-.8,1.3-.8l1.9.8v3.4c-.7,0-.7,1.1.3,3.1l-.7,1.9.3,1.5-.7,3.4-.7-.4.3,2.7.7,3.4-.7,6.9c-.7,1.1-1,2.3-.7,3.4l-.3,1.9c-.7.4-.7.8.3,1.9l.3,2.3v1.5l-.7,3.8v1.9l1.9,5,1.3,1.1,1.6-.4,1,.8h1l2.3-1.1v.4ZM500.6,160.2l-3.8-2.7-.3-.4-.3.4-2.9-2.3-1.6-1.9-2.2-.8-1.9-1.9-1.9-.8-2.2-1.5-2.6-1.1v-.8h-.3l-1.6-.4-3.2-3.4c-.7,0-1-.4-1.6-1.1v-.4l-1.3-.8-1-.4c-.7,0-1.3.4-1.6.8-.7,0-1.6,1.1-2.2,1.9l-1.6,2.3-1.3,2.7-1.9,2.3c-.7.8-1,1.9-1,3.1l-1.6,1.5-13.1,23.7c-.7.4-1,1.1-1,2.3l-2.6,3.4-1.6,1.5-1.6,3.4c-.7-.4-1.3-.8-1.6-1.1l-1.9-1.1-1.6-1.5-3.2-2.3-1.9-.4-1.3-1.5-1.3-1.1-.3.4-1.3-1.5-.7.4c0-.8-.3-1.1-.7-1.1l-1,.4-1.3-1.1c-.7,0-1-.4-1.6-1.1l-1-1.1h0c0,0-.3.5-.3.5l-4.2-3.8-1.3-1.5-1.3-1.1h-.3l-2.2-3.4-1,.4-.3-1.1-1.6-.8-.7-.4-1.3,1.1-1.3,1.9c-.7-.4-1.3.4-1.6,1.1l-2.3,2.7-.7.4-.7.8-3.5,3.4-1.6,1.9-2.2,3.4-1.3,1.5-1,1.9-.7,2.7-1,1.9-1.9.8.3.4-1.6,1.1-1.9,3.4-.7.8-.3,1.1h.3l-1.3,1.1c-1,.8-1.3,1.9-1.6,3.4l1,1.9,1.9,1.5h.7c1.3,1.5,2.6,3.1,4.2,4.2l4.5,5.4.3.8,1,.4,4.2,5.4c.7,1.9,1.3,3.8,2.6,5.4v.4l.7.4c1.3.8,1.9,1.9,2.6,3.8l1.3.8.7,1.9,2.9,2.7h.3c0,1.1.3,1.9,1,2.7.7.8.7,1.9.3,3.1-.3,1.1-.3,2.3.3,3.4-.7.8-1,1.9-1,3.4s-.7,3.8-1.6,5.7l-.3.4-1.9,10.3-1,2.7-1.9,8.4-1,1.1-.3,4.2,1.3,10,1,3.4c.3,1.1,1,1.9,1.6,2.7l1,.4,3.5-1.9,2.6-.8,1.9.8c.7-.4,1-.8,1.6-.8l2.9.4,1.3-.4c1,0,1.6-.4,1.9-1.1l1.6-.8,1.9.8,1.6,1.1,1-.4,1.3.4,2.6-.8c.7,0,1,.4,1.9,1.5l1.9,2.7,3.5-.8.3.4c1.3-.4,2.6-1.5,3.2-2.7,1-1.5,2.2-2.7,3.2-3.1l2.9-11.1,3.2-6.1,1.6-6.9,5.1-12.6,2.2-9.6,3.2-6.9,2.9-8,.7-2.3,1.9-4.6,3.8-5.7,1.3-3.4,5.8-11.1,1.3-1.9,1-2.3c.3-.8,1-1.1,1.3-1.1,1.3-.4,1.6-.8,1.6-1.1l1-2.3,1.6-1.5,1.3-2.7,6.7-10,1.9-4.2,1.9-2.7v-.8l2.6-2.7c.3-2.7,1-4.6,1.9-6.2-.3-2.3-1.3-3.1-3.2-3.8ZM221.7,39.1l1-.8,4.2-13c.3-1.5,0-2.3-1.3-2.3l-2.9-.8h0c0,0-1,0-1,0l-.7,1.1-1.9,8c-1,2.7-1.3,4.6-1.3,6.1l3.8,1.5ZM191.9,46.5l2.2.8,1-.4,2.2-4.6c.3-1.1,1-2.7,1.9-3.4l1,3.4,2.2.8h2.2l1.9-2.3c1-2.3,2.6-4.2,3.8-5.4h.3l-.3,3.8.3,2.7.7-.4h3.2c1.6-.4,2.2-1.1,1.6-3.1,1-1.9,1-3.8,1-6.2.7-2.3.7-4.6.7-6.5h0s-1-.4-1-.4h-1.3l-5.1.8c-2.6,1.5-4.5,3.4-5.8,6.5l-1.9-5-1-.4-3.8,1.1c-2.6,1.9-4.2,4.6-5.1,8l-1.6,3.4c-1.3,1.9-2.2,3.4-2.6,5.4h1.3l1.9,1.1ZM164,53.4h2.9c1.3-.4,2.2-1.5,2.9-3.4.7-.8,1.3-1.1,1.9-1.1l7.4,1.9,3.5-4.6c-.7-1.1-1.9-2.3-3.8-3.1h0c0,0,5.1-6.2,5.1-6.2l-3.5-3.8-7.4,7.3c.3-2.7-.7-3.8-3.2-3.4l-1.3-.4c-.7-.4-1,0-1.3,1.1l-4.2,13.4c0,1.5.3,2.3,1,2.3ZM226.8,34.3c1,1.5,2.2,1.9,3.8,1.9l5.5-1.5c1.6-1.1,2.2-3.1,1.9-5.4v-.8h0c0,0-2.9.7-2.9.7-.7,0-.7-.4-.7-.4,1.6-3.4,1.6-5.7.3-7.7l-4.5-1.5c-.3,0-1,0-1.3.8l-1.6,7.3c-1,2.3-1.3,4.2-.7,6.5ZM146,59.5h2.2c1.6-1.9,2.9-4.2,3.8-7.3,1,1.9,2.6,3.1,4.5,3.8,2.2.4,3.5-.4,4.5-2.3l3.2-11.1c-1-1.5-2.2-2.7-4.2-3.1h-.3l-.7-.8h0s-1.3,3.1-1.3,3.1c0,1.5-.7,3.1-1.3,4.2h-.3l-2.9-3.8-1.6-.8-4.5,1.1-3.5,14.6v1.5h.3c.3.8.7,1.1,1.9.8ZM239.6,32.7c0,.4.7.8,1,.8l7.1-1.9c1.6,0,2.6-.8,2.6-1.9.7-1.5.7-2.7.3-3.4l.3-.8-3.8.8c.7-1.9,1.3-3.8,1.9-5.7,1-1.9,1-3.1-.3-3.4l-4.5-2.3-1,1.1-3.8,14.2c-.7,1.1-.7,1.9,0,2.7h.3ZM125.8,61.4l5.5,1.9c.3-1.9,1-2.7,1.9-3.1l4.2-1.1h.3l1.3,3.1,1.9-1.1,1.6-.4h.3v-1.9l-1.9-10c-1-2.3-2.6-3.1-5.1-3.1l-1.9-.4-.7.4c-1.6,1.1-2.6,2.7-2.9,5h0l-2.2,6.1-2.2,4.6ZM134.1,54.1l1-1.5h0l1.3,2.3-1.6.4c-1,0-1.3-.4-.7-1.1ZM271.1,25.7l1-1.1c.3-1.9,1-3.1,1.6-3.1l6.7,1.9,1-.4c1.3-.8,2.2-1.9,2.9-3.4l.3-.4c-1.6-.4-2.9-1.1-4.2-2.3l1.9-1.9c.7-1.5.7-3.1,0-5-1-2.3-2.2-3.4-4.8-3.4-2.9.4-5.8,1.5-7.7,3.1l-2.6,10c-.7,1.1-1,2.3-1,3.8l4.8,2.3ZM275.2,13.5l.7-.4c1.3,1.1,1.3,2.3-.3,3.1h0s-.7,0-.7,0c-1,0-1-1.1.3-2.7ZM287.4,13.1l3.5.4c1.3.8,1,1.5-1,2.7l-2.2.8c-.3,0-1-.4-1.3-.8-.3,1.5,0,3.1,1.3,4.6l1.3.4,3.5-1.1c3.2-1.1,5.5-3.4,7.1-6.5,1-2.3.3-3.8-1.9-5l-1.9.4c-1,0-1.6-.4-1.3-1.5,1-1.1,1.9-2.3,3.5-2.7l1,.8-.3.8h.7c1.3-1.1,1.6-3.1,1-5.4l-2.2-.8-4.5,1.5h0c0,0-5.1,4.7-5.1,4.7l-1.3,2.3c-.7,1.9-.7,3.4.3,4.6ZM254.1,29.2l8-2.3c1.6,0,2.6-.4,3.2-1.5v-2.7c0-1.1-.3-1.5-1.3-1.1l-5.5,1.5h-.7c0-.8.3-1.1,1-1.5l2.9-.4c.7-.4,1.3-1.1,1-2.3v-.8l-2.9.8-.7-.8,3.2-1.5c1.9,0,3.2-.8,4.2-1.9h0l-.7-3.8-8.3,2.3c-1.6,0-2.9.8-3.5,2.3l-2.2,10.3c-.7,2.3.3,3.4,2.2,3.4ZM285.9,6.2c1-1.1,1.6-2.7,1.9-3.8h0l-1.9-.8-1,1.1-1.3,3.4,1.6.4.7-.4ZM97.2,70.6c1.6-1.5,3.2-2.7,5.1-3.1,1-.4,1.6-.8,1.9-1.1l1.3-4.6-4.8,1.1h-.7c-.7-.8,0-1.5,1-2.3l6.1-1.5c1.6-.4,2.6-.8,2.6-1.5.3-1.1.3-2.3,0-3.4h0c0-1.6-.3-2.3-1-2.7l-1.3.4-5.1,1.9c-2.2,0-4.2.8-6.1,1.9-.7.4-1.3,1.9-2.2,4.6l-1.6,5.4c-1.3,2.3-1.9,4.6-2.2,7.3l4.2,2.3,2.9-4.6ZM108.5,67.5h.3c1,1.1,2.2,1.5,3.5,1.5l2.2-4.2.7-.4,5.5,1.9h.3l1.9-1.1,2.2-2.3c-1.3-.8-2.2-1.5-3.2-2.7.3-.8.7-1.1,1.3-1.1,1.3-1.1,2.2-2.7,2.9-4.6.3-3.8-1-5.4-4.2-5.4l-3.2.8c-2.6.8-4.8,1.9-6.4,3.8l-3.2,9.2c-1.3,1.9-1.6,3.4-.7,4.6ZM118.4,55.7h0s1-.4,1-.4c1.3.8.7,1.9-1,3.1h-.7c-.7-.4-.7-1.5.7-2.7ZM122.6,436.5c-1-3.1-2.6-5.3-4.8-6.5-2.2-1.2-4.9-1.4-8-.4-3.1,1-5.5,1.9-7.2,2.6-1.7.7-2.6,1.2-2.7,1.3,0,.1,0,.3,0,.5l8.8,43.4c.1.3.4.4.8.3l6.8-2.5c2-.7,3.6-1.4,4.9-2.1,2.9-1.6,4.7-3.5,5.6-5.8.9-2.5,1.1-5.9.5-10.1-1.2-8-2.7-15-4.6-20.8ZM119.5,465.1c-.8,1.2-2.5,2.3-5.1,3.5l-6.4-31.2c.3-.2,1-.4,2.3-.8,1.3-.4,2.4-.4,3.4.1,1,.5,1.7,1.5,2.2,3,.8,2.6,1.7,5.9,2.6,10.1.9,4.1,1.5,7.5,1.8,9.9.3,2.5,0,4.3-.7,5.5ZM479.7,355.4l-13.7-15.7c1.8-1.4,3.2-3.2,4.1-5.2.9-2,1.3-4.1,1.3-6.2,0-2.2-.5-4.5-1.3-7-.8-2.5-2.3-4.3-4.5-5.4-2.2-1.1-4.8-1.1-7.8-.1-3,1-5.4,1.9-7.2,2.6-1.8.7-2.7,1.2-2.8,1.4,0,.2-.1.4,0,.7l8.7,43.1c.1.3.4.4.8.3l5.7-2.1c.4-.2.6-.5.5-.9l-3.7-17.8,12.6,15.3c.2.3.5.4.8.3l6.1-2.2c.5-.2.7-.4.6-.8,0-.1,0-.2-.2-.3ZM464.2,330.9c-.3,3.3-2.2,5.6-5.5,6.9l-2.9-14.2c.4-.2,1.3-.6,2.6-1,1.3-.4,2.3-.4,3.2,0,.9.4,1.6,1.5,2.1,3.1.5,1.6.7,3.3.5,5.2ZM276.4,396.6c-.9-4-1.8-7.3-2.7-10-.9-2.7-2.4-4.8-4.6-6.1-2.2-1.3-4.8-1.5-7.9-.5-3.1,1-5.3,2.7-6.6,5-1.4,2.5-1.8,6.6-1.1,12.4.8,7.3,2.4,14.5,4.7,21.6.9,2.8,2.4,4.8,4.6,6.1,2.2,1.3,4.8,1.5,7.9.5,3.1-1,5.3-2.7,6.6-4.9.6-1,1-2.2,1.2-3.6.2-1.4.3-2.8.3-4.1,0-1.3-.2-3.3-.5-6.1-.3-2.8-.9-6.1-1.8-10.1ZM269.2,418.7c-.9.3-1.7.2-2.5-.3-.8-.5-1.5-1.7-2.1-3.5-.6-1.8-1.4-4.9-2.3-9.4-1-4.5-1.7-8.1-2-10.8-.7-4.6,0-7.2,2.2-7.9,1-.3,1.9-.2,2.7.3.8.5,1.5,1.7,2,3.4.6,1.7,1.3,4.8,2.3,9.2.9,4.4,1.7,8.1,2.1,11.1.7,4.5,0,7.2-2.4,7.9ZM141.5,420.3c-.2-.4-.5-.6-.8-.5l-6,2.2c-.4.1-.5.4-.5.9l1.5,45.8c.1.3.4.5.7.3l5.6-2.1c.2,0,.4-.2.4-.3,0-.1,0-.3,0-.6l-.7-9.2,6.2-2.3,3.4,9c.1.3.4.5.7.3l5.7-2.1c.5-.2.6-.5.5-.9l-16.7-40.6ZM141.3,450.5l-1.3-17.1,5.8,15.5-4.5,1.7ZM241.1,394.7l5.3-1.9c.3-.1.4-.2.4-.4,0-.1,0-.4,0-.6l-1.1-5.9c-.1-.4-.4-.6-.9-.5l-17.6,6.5c-.5.2-.6.5-.5.9l1.2,6c.1.4.4.5.9.4l5.4-2,7.5,36.7c.1.4.4.5.7.3l5.7-2.1c.4-.2.6-.5.5-.9l-7.4-36.6ZM414.4,350.3c-.1-.5-.5-.6-.9-.5l-8.6,3.2-2.2-11,8.8-3.2c.4-.2.6-.5.5-1l-1.2-5.9c-.1-.4-.5-.6-.9-.5l-14.9,5.6c-.4.2-.6.5-.5.9l8.8,43.4c.1.3.4.5.8.3l5.6-2.2c.4-.2.6-.5.5-.9l-3.7-18.1,8.7-3.2c.4-.2.6-.5.5-.9l-1.1-5.9ZM184.6,406.2c-.1-.4-.4-.6-.9-.4l-7.2,2.6c-.4.2-.6.5-.6.9l1.2,36.2-13.3-32.4c-.2-.4-.5-.6-.9-.4l-6.9,2.5c-.3.1-.4.2-.5.3,0,.1,0,.3,0,.5l8.8,43.4c.1.3.4.4.8.3l5.2-1.9c.4-.2.6-.5.5-1l-8.5-33.4,13.1,32.3c.1.3.4.4.8.3l5.3-1.9c.4-.1.6-.5.6-.9l-1-36.6,5.6,35.4c.1.3.4.5.7.3l5.6-2c.4-.2.6-.5.5-.9l-8.9-43.2ZM218.8,434.3c-.1-.5-.5-.6-.9-.5l-10.4,3.8-2.4-11.8,8.5-3.1c.4-.2.6-.5.5-.9l-1.1-5.9c-.1-.5-.5-.6-.9-.5l-8.4,3.1-2.2-10.7,8.8-3.1c.4-.2.6-.5.5-1l-1.2-5.9c-.1-.4-.5-.6-.9-.5l-14.9,5.5c-.4.2-.6.5-.5.9l8.8,43.4c.1.3.4.5.8.3l16.7-6.1c.4-.2.6-.6.5-1l-1.1-6ZM325.6,360.1c-.1-.4-.4-.6-.9-.4l-5.4,2c-.4.2-.6.5-.5.9l8.8,43.4c.1.4.4.5.8.3l5.6-2c.4-.2.6-.5.5-.9l-8.8-43.1ZM359.7,388.1c-.1-.5-.5-.6-.9-.5l-10.4,3.9-7.5-36.4c-.1-.4-.4-.6-.9-.4l-5.5,2c-.3.1-.4.2-.5.3,0,.1,0,.3,0,.5l8.9,43.3c.1.4.4.5.7.3l16.8-6.2c.4-.2.6-.5.5-1l-1.1-6ZM384.1,380.1c-.1-.5-.5-.6-.9-.5l-10.4,3.9-7.5-36.4c-.1-.4-.4-.6-.9-.4l-5.5,2c-.2.1-.4.2-.5.3,0,.1,0,.3,0,.5l8.9,43.3c.1.3.4.5.7.3l16.8-6.2c.4-.2.6-.5.5-1l-1.1-6ZM322.9,406.9l-13.8-19.9,2.8-21.7c0-.3,0-.6,0-.8-.1-.4-.4-.5-.9-.3l-5.7,2.1c-.4.2-.6.5-.7,1l-2,21-3.9-19.3c-.1-.4-.4-.6-.9-.4l-5.5,2c-.3.1-.4.2-.5.3,0,.1,0,.3,0,.5l8.9,43.3c.1.3.4.5.7.3l5.6-2c.4-.2.6-.5.5-.9l-4.3-21.1,12.6,18.8c.2.3.5.4.8.3l5.8-2.2c.5-.2.7-.4.6-.7,0-.1,0-.2-.1-.3ZM74.3,442.3c-.2-.4-.5-.6-.8-.5l-6,2.2c-.4.1-.5.4-.5.9l1.5,45.8c.1.3.4.5.7.3l5.6-2.1c.2,0,.4-.2.4-.3,0-.1,0-.3,0-.6l-.7-9.2,6.2-2.3,3.4,9c.1.3.4.5.7.3l5.7-2.1c.5-.2.6-.5.5-.9l-16.7-40.6ZM74.1,472.5l-1.3-17.1,5.8,15.5-4.5,1.7ZM443.9,341.8c-.9-4-1.8-7.3-2.7-10-.9-2.7-2.4-4.8-4.6-6.1-2.2-1.3-4.8-1.5-7.9-.5-3.1,1-5.3,2.7-6.6,5-1.4,2.5-1.8,6.6-1.1,12.4.8,7.3,2.4,14.5,4.7,21.6.9,2.8,2.4,4.8,4.6,6.1,2.2,1.3,4.8,1.5,7.9.5,3.1-1,5.3-2.7,6.6-4.9.6-1,1-2.2,1.2-3.6.2-1.4.3-2.8.3-4.1,0-1.3-.2-3.3-.5-6.1-.3-2.8-.9-6.1-1.8-10.1ZM436.7,363.9c-.9.3-1.7.2-2.5-.3-.8-.5-1.5-1.7-2.1-3.5-.6-1.8-1.4-4.9-2.3-9.4-1-4.5-1.7-8.1-2-10.8-.7-4.6,0-7.2,2.2-7.9,1-.3,1.9-.2,2.7.3.8.5,1.5,1.7,2,3.4.6,1.7,1.3,4.8,2.3,9.2.9,4.4,1.7,8.1,2.1,11.1.7,4.5,0,7.2-2.4,7.9Z"/>
  <path class="st1" d="M50.7,275.4l3.5-1.5v-.4l.7.4,2.9-1.1c.3-.4.7-.8,1.3-.8l.3.4,1.3-.8h.3l1.3-.8,3.5-1.5c.7,0,1.3-.4,1.6-.8l.7-.4,1,.4h.7l1,.4.3-.4.7-.4c0-.4.3-.8.7-1.1l.7.4,1.3-.4v-.4l.3.4,1-.4c0-.8.3-1.1,1.3-.8l1-1.1v.4h.3l1.9-1.5,1.9-.8,1.6-1.1,1.9-.8h.7l1.3-.8c.3-.4,1-.8,1.6-.8l1.9-.8,1-.8,1-.4,1-.8c0-.4.3-.8,1-.8l1-.4,1-.8h.3l2.9-1.9,1-.4,1.3-.8,1-.8h.7l1.6-1.1c0-.4.3-.8,1.3-.8l1-.8,1.3-.4,1.3-.8.7-.8.3.4,1-.8.7-.4,1-.4,1-.8.7-.4,1-.8,1-.4.7-.8,2.9-2.3,1.9-1.1,1-.8c.3-.8.7-.8,1-.8,0-.4.3-.8,1-.8l1-.4c.3-.8.7-.8,1-.8l1.9-1.5,1-.4,2.9-2.3.7-.8,2.9-2.3.7-.8c.3-.8.7-1.1,1-.8l1-.8c.3-.4.7-.8,1-.8h.3l.3-.8c.7-.8,1-1.1,1-.8l.7-.8,1-.8.7-1.1h.3l1.3-1.5.7-1.1.7-.8.7-1.1v.4l.3-1.1.7-.8.3-.8.3-1.1.7-1.1v-1.1l.7-2.7h.3l-.3-1.1v-2.3l-.3-1.1v-.8l-.3-1.1v-1.1l.7-2.7.7-1.5v-.8l1-2.3,1-.8.3-1.1v-1.1l-1-1.1-1.9-6.9-1.3-1.5-1-.4-1-.8.3-1.1v-1.5l-1.3-1.5-.7-.4-1-.4-.7-.8h-.7v-.4l-2.2-.8-1-.8-2.2-1.1-.7.4-.3-.4-5.5-1.9h-1.3l-3.8-1.1h-1.3l-.3-.4-1,.4-1.9-.4h-.7l-5.1-1.5h-1.3l-1.3-.8-3.5-1.1-1-.4h-.3l-8-2.7h-1.3l-1.3-.4-2.9-1.5c-.3,0-.7,0-.7-.4h-1.3l-1.3-.4v-.8l4.2-2.3,1.9-1.5v-.4h.7l7.7-5,1.6-1.9,1.6-.8,1.3-1.1,1.6-.8,1.6-1.1,1-1.5,1.9-.8,1.3-1.1,1.6-.8,2.9-2.7,3.8-2.3,1-.8c.3-.4,1-.8,1.3-.8l1-.8,1.3-.8,1-.8,2.9-1.5c.7,0,1.3-.4,1.6-.8l4.8-1.1.3.4,1,.8.7-.8h.3l-.3,1.1h.3l.7,2.3,1,1.9,1.6,1.1.3.8h.3v-.4l.7.4,1,1.1c-.3,0-.7.8-.7,1.9l-.3,1.9-.7,2.3c0,.4.3,1.5,1.3,1.9l1.3.8,2.6-1.5h.3l.7-.8.3-.8h.3l1-1.9,1.9-3.1.7-1.6.3-1.9.7-1.1,1.3-3.1,1-1.1,2.6-6.9,2.2-5v-1.5l-.3-1.9c-.3-1.1-.3-1.9,0-1.5-.3-.4-.3-1.1,0-1.5l.3-1.1,1-5.4c-.3-1.1-.3-1.5-.3-1.9l-.3-1.9h.3l-.7-1.5-.7-1.1-.7-1.5-.7-1.1-.7-1.9-1-1.5c.3-.8,0-1.1-.7-1.5.3-.4,0-.4-1-.8l-1.3-1.1-3.8-1.1-.2.4-3.8-.8h-.3l-1.3-.4-.7.4-1-.4c-.3-.4-.7-.8-1-.8l-.7.4h-.3l-1.3-.4-.7-.4-1,.4-1.3-.4-.3.4-1.3-.4h-1.6l-1-.4-.7.4h-1l-.7-.4h-1.9l-1.6.4-.7-.4-1,.8h-.3l-1.3-.4-.7.4-1.9.8c-.7-.4-1,0-1,.4h-1l-1.9.4-1.9.8-1.9.4-.7.4-.7-.4-.7.4-1.9.8-.7-.4c-.3,0-.7.4-1.3.8l-8.6,3.8-9,4.6h-.3l-1,.4-.3.4h-.3l-3.2,1.5-3.5,2.3-.7-.4-1.3,1.1-1.9.8-.3-.4-1.6,1.5-3.8,1.5-1.6,1.1h-.3l-1.3,1.1-.7-.4-1.9,1.1-.7-.4c-.3,0-1,.4-1.3,1.1l-1.6,1.1-1.6.8c-.7,0-1,.4-1.3,1.1l-1.3.8h-.3v-.4l-1.3,1.5-2.6,1.1-.3.4h-.3l-2.9,2.3-.3-.4-1,1.1c-.7,0-1.3.4-1.6,1.1l-1.3.8c-1,0-1.3.4-1.6,1.1l-1.6.8h-.3l-2.6,1.9-1.6.8-1.3,1.1-1.6.8-1.3,1.5-4.5,3.8-1,1.1-1.9,3.4c.3.8,0,1.1-.7,1.5l-3.8,7.7-1.3,1.5-1,1.9-1.3,1.1.3,2.7c-.3,0-.7.8-1,2.3l-1.6,1.9-.7,2.7.3,1.5v.8l-.3.4-2.9,5c-.3.4-.7,1.1-.7,1.5l-.7,1.1-.7,2.3v1.5c-.3-.4-.7,0-.7.4l-.7,1.5-.7,1.1-.7,3.8,1,3.8v4.2l.3,1.5.7,1.1,3.8,3.4,1.6.8,1.6.4,2.9,1.5,1.3.4,1,.8h.3l1.6.8,1.3.4,1.3.8.3.4.3-.4.7.4.3-.4,1.9,1.6h.3l5.5,1.5.3-.4,2.6,1.5h1.3l1,.4h.3l1.6.8,1-.4c.3,0,.7.4.7.8h1l1.9.7h.7l1.6.4,1,.8h.7l.3-.4,1.3.8,1.6.4.3-.4,1.3.8,3.2.8,1,.4v.4h.7l2.6.4v.4l1,.4-1.9,2.3-1,.4h-.3l-1.3,1.1-1.3.4-1.3.8c-.7,0-1,0-1.3.8l-1,.8-1.3.8-1,1.1-1.3.4-1,1.1-3.2,1.9-1.9.8-1.9,1.1c-.7-.4-1.3,0-1.9.8l-1.9.8-.3-.4c-1,.4-1.3.8-1.6,1.5l-1.9.8h-.3c-.7.4-1.3.8-1.3.8h-.3l-1.9,1.1c-.3.8-1,1.1-1.9,1.1h-1.9c-1,0-1.6.8-2.2,1.5v-.4h-.7l-1.9.8-.7-.4-.3.4-1-.4c-.3,0-.7.4-1,.8l-1-.4-.7.4-.3.4h-2.2l-.3.4-1-.8-1.3.4-.3-.4-1.6.4v.4l-1.3-1.1-.3.4-1.3.4-.3-.4h-.3l-2.2-.8-1.6-1.9-1-.8c-.3-.4-.3-.8-.7-.8l-.7.4-.3-.4c-.7,0-1,.4-1.3,1.1,0,.8-.7,1.1-1.6,1.1l-2.2-.8v.4c-1,0-1.6.4-2.2,1.1-.3,0-.7.8-.7,1.5l-.3,1.9,1,6.2-.3,2.3c-.3,0,0,.4.7,1.5l.7,3.8v1.9l.3,1.9v1.9l1,5.4,1.3,3.8,1,1.9,1,1.1-.3,1.1,1.3-.4,1.6-.8.3,1.5h.3l1.3.8-.3.4,1,1.9,1.6,1.5,1.9.4,1.6,1.5.7-.4.7.4,1.3.8,1.9.4.7-.4.7.8h1.6l2.2.4,1.6-.4-.3.4c.3.8,1,1.5,1.9,1.5l3.5.4h.3c.2-.2.4-.4.7-.4h.7l1,.4.3-.4h1l.3-.4,1.9-.8v.4l1-.4h1l1.9-.4,1.9-.8.7.4,3.2-1.5,1.9-.4ZM195.5,198.7l10.3-3.4v-.8l3.2-1.1c1-1.1,1.3-1.9,1-2.7.7-2.3,1.6-3.8,3.2-4.6v-.8l1.3-2.7c.7-1.1,1.3-1.9,1.3-3.1l.7-1.9v-.4l1.3-2.7,1.3-10.3.7-2.7.7-2.3,1.9-8.8,1.6-15.7v-5l.7-2.7v-3.1l.7-.4-.7-.4,1-1.5v-2.3c.7-1.1.7-1.9.7-2.7l.7-.8h-.7v-.8l.7-1.1.7-1.5h-.3l.3-.8h-.3l.7-1.9.7-1.1-.7-.4,1-2.7.7-1.5-.3-.8,1-4.6h-.7c1-1.5,1.3-2.7,1-3.8l.3-.8.3-3.4v-3.8l1.3-7.3-.3-3.1v-.2c0,0-2-8.8-2-8.8-2.9-1.9-6.1-2.3-9.3-1.9l-21.5-1.5-2.2.4-6.4,1.9c-2.6.4-5.1,1.5-7.1,2.7l-6.4,2.3c-2.6.4-4.5,1.5-5.8,3.4l.3.8.3.4v.8c-1,1.5-1.3,3.4-.7,5.7l.7,6.5-.3.8-.3,4.2c.3.4.3,1.1-.3,2.3v2.3l-.3,2.7v.8l-.3.8v1.5l-.3.4.3,1.1h-.3c.3.8,0,1.5-.3,3.1l.3.4h-.3v1.5l-.3.8v1.9h.3l-.7,1.9c.3.8.3,1.5-.3,2.7l.3.4-.3.4-.3.8c.3.4,0,1.1-.3,1.9l-.3,1.1h.3l-.3.8.3,1.9-1.6,9.2c.7.8.7,1.9-.3,3.1l-1,7.7-1,3.4.3.4-.3,1.1c.7.8.3,1.5-.7,2.3l-.3.8.3.8h.3l-.3,1.5v.8l.3.4-.7,2.3.3.4-.3.4.3.4-.3.8h.3l-.3,1.5-.3.8.7.4h-.3l-.3,1.1v1.5l.3.4-.3,1.1c.3.8.3,1.1-.3,2.3l.3.4-.7,1.1.3.4v.8h-.3l.3.4-.7,3.1h.3c-.3.4-.3.8,0,1.1l-.3.4v7.7l-.7,6.5,1.6,6.2c0,2.3,1,3.8,2.9,5.4h1.3l4.2-1.5h-.3c.3-1.1.7-1.5,1.3-1.5l2.2.8c1.3-.4,2.9-.8,4.5-1.5l-.7-.8c.3-.8.7-1.1,1-1.1,1,.8,1.6,1.1,2.6,2.3h.7l4.5-1.1c1.6-1.1,3.2-1.9,5.1-2.3,1.3.4,2.2.8,3.5,1.9ZM375,98.4l.3-.4.3-1.1v-3.1l.3-.8v-2.3l.3-1.1.3-.8v-2.3l-.3-1.1.3-1.1v-1.1l.3-.8v-1.1c-.3-.8-.3-1.5,0-2.7l1-5v-2.3l.7-2.3.7-4.6v-1.9l.7-2.7c-.3-1.1,0-1.9.7-2.3l.7-1.9c.7-1.5.7-2.7.3-3.1.7-1.5.7-2.7.3-3.4v-4.2l1-2.3v-2.3l.3-2.3v-5l.3-1.9c-.3-.8-.3-1.5,0-2.3v-7.3l.7-2.3-.3-2.7v-6.5l-.3-1.9v-.4h-.3l-2.9-.8h-1l-5.8-.8-7.7,1.9c-.3.4-.7,0-.3,0l-.3-.4h-.3l-1.6.8-1.6-.4-.7-.8-1.9,1.1h-.3l-.7-.4h-.7l-1.3,1.1-1.9.4-1.6,1.1v-.4l-1.6,1.5c-1,0-1.3.4-1,1.5h-1.9c-.3,0-.7.4-.7.4l-.7-.4-1-.4-1.3.4h-2.2l-1,.4-1.3-.4h-5.5l-.3.7h.3c0,0-.3,0-.3,0h0c0,0-1,.2-1,.2l-2.6-.4h-2.3l-1,.4-.7-.4-1.3-1.1-2.2.8-1.6,1.1-.3,2.3.3,4.6-.3,1.9v9.6c-.7.8-.7,1.5-.3,2.3-.7,1.1-.7,1.9-.3,2.7l.3,2.3v1.9c.7.8.7,1.5,0,2.3v6.9c-.3.8-.3,1.5.3,1.9l-.7,1.5.7,1.1-.7,1.9-1,1.9-.3,5.7c-1-.4-1.6-.8-2.3-1.5l-9.3-8-4.8-5.4-1.9-.8-.7-1.1-1.6-2.3-1.6-1.5-1.9-1.1-1.9-.4-1.9,1.1-1.3,1.5-1.9-.8-.3.4-1.9-.8-.7-.4-1.3,1.1v-.4l-.7.4v-.4l-1,.4h-1l-.7,1.1-1,.8-1-.4-2.2-1.5v.4l-2.9,1.1-1.9,2.3c-.7.4-1,.8-1.6.8l-1.6-.4-1-.4-3.2,3.1-1.6.8h-3.2l-.3-.8h-.7l-1.9,1.1-.7,1.5-.7-.4-1.9-.4h-1.6l-.7-.4-1.9-1.1-1.6-.8-2.9,1.1v.4h-.3l-.3.4-.3.8-1.6.4-.7-1.1-1.6.8-1.6,1.5-1,4.2-.7,3.8-1.6,3.8c1,.8,1,1.5.7,2.3l-.7,2.3v4.2l.7,3.8c-.7.4-.7,1.1,0,2.3l.7,1.5-.7,1.9v1.9l-.7.8h.7v.8h.3l-1,1.9,1,3.4-.3,2.7.3,6.2-.3,1.1v1.9c-.7.4-.7,1.5-.7,3.4v2.7c-.7.4-.7,1.1,0,2.3v4.6l-.3,1.9v1.9l.3,2.3v4.2c.7.4,1,1.5.7,2.3-1,.4-1.3,1.1-1.3,2.3h.3l-.7,3.8.3,3.4v1.9l.3,1.9c-.3.4,0,1.1.3,1.9v4.6l.7,5.7v2.3h.3v3.4l.3.4v2.7l.3,2.3,1,1.5,1,1.1h.7l2.9,1.1h.7l1,.4.7-.4,1.9-.8,1.3-1.1.3-.4,1.3,1.1,1.6.8h.3v-.4l1.6,1.1,1.3.4h.3c0,.4.3.4.7.4l.3-.4.7.4,1.3.4.7-.4,1.6-.4.3.4,1-.8.3-2.7,2.2-.4,2.3-.8c.7-.8,1.3-1.1,1.9-1.1l.3-.8,1-.4v-.4l.3.4.3-.4h.3l.7-.4.3-.4h.3v-.8h.3v-.4l.3.4.7-1.1.7.4h.3l.3-1.5.7-1.5,2.2-9.2v-2.3l.3-.8.3-1.1.3-.8c-.3-.4-.3-1.1.3-1.5v-.8h.3l1-3.8v-1.1l.3-1.1v-3.4l.7-2.7.7-1.1,1.6-6.2.7-1.1.3-1.5c-.4-.5-.3-.9.3-1.1v-1.5l.3-1.1v-1.5l.3-1.1v-1.5c-.3,0-.3-.4,0-1.1v-.8l.3-1.1v-.8c.3-.4.7-.8,1-.8l1,.4,1,.8h1l.7.8,1.3,1.1c0,.4.3.8.7,1.1l5.1,2.7,1.9.4.7,1.9c1.3.8,2.6,1.5,3.2,3.1l2.6,1.9,3.5,1.1c.3,1.1,1.3,2.3,2.9,2.7l4.5,3.1,1.9.8c1.3,0,2.2.8,3.2,1.9l3.2.8,2.2,1.5h.7l3.2-.4,2.6,3.1h1.6l.7.4,1,.4,1-.4,2.9-2.3,1-.4,1,.4h2.6l2.2.4,1.9-1.1,2.2,1.1,1.9-.8c1.6-.4,2.6-1.1,2.6-1.9,1-1.1,2.2-2.3,3.8-2.7l2.9-2.3v-.4l.7-.4.3.4c1.6-.8,3.2-1.5,4.8-3.4l1.9-1.9.7-5,1.6-2.3c-.7-1.1-.7-2.7,0-4.2l1.6-5,1-5.7,1-3.4v-.8ZM179.3,321h.2c0,0-.1,0-.2,0ZM180.8,324.3l-1.6-2.3c0-.6,0-.9.1-.9l-1.7-1.4c0-1.5-.7-1.9-1.6-1.9l-.7-.4-.7.4-1-.4-2.6.8-8,5.4h-1.9l-1.3,1.1-3.5,1.9-1.9.8-.3-.4c-.7,0-1,.4-1.6,1.1-.3.4-1,.8-1.6.8l-1.6.8-.3-.4c-.7.4-1.3.8-1.6,1.5l-3.5,1.5-1.6,1.1-1,.4h-1l-1.9.8-1.9,1.1h-.3l-3.5,1.5-1.3.8h-.7l-.3-.4-1.6,1.5-.3-.4c-.7.4-1,.8-1.3,1.1l-.3-.4-1.6.8h-1.9l-.7.4h-1l-6.1,1.1-1-.4c-.7,0-1,.4-1.6,1.1l-1.3-.4c-.3,0-1,.4-1,.8l-3.2.4h-2.9l-.3.4-.7-.4-3.5-.8-.7.4-.3-.8h-.3l-.3-1.5,1-2.3,1.3-1.9,1.6-1.1,4.5-5,1-1.9,1.6-1.5,1.3-1.9,1.6-1.5,1.9-2.3,10.6-8.8,4.8-3.1c.7-.8,1.6-1.5,2.6-1.5l7.4-3.8,2.6-.8,2.6-1.5,5.1-2.3c1.9-1.1,3.8-1.9,5.8-2.3h2.2l1.6,1.9,1,1.5,1.3.8,2.6.4,1.6-.4,1.3-1.5,2.2-4.2,2.6-6.9c-.3-2.7,0-5,1-6.9v-.8c1.3-1.1,1.3-2.7.3-4.6l.7-1.9v-3.1c1.3-1.1,1.6-2.3,1-3.4l3.2-5.7.7-2.3-.3-6.9.3-2.3c.3-.8.3-1.5-.3-2.3l-1.3-1.5-1.6-.8c-.7-.8-1.3-1.1-1.6-1.1l-1.9-.8-1.9-1.1h-1.9l-5.8-2.3-2.2-.4-1.6.4h-.3l-2.2.4-.7.4h-1.3l-1.9.4-10.3,3.1h-.7l-6.7,1.9v1.1l-.7-.8-10.6,4.2-1.6,1.1h-.3l-2.2.8-1.9,1.5-1.9,1.1c-.7-.4-1.3,0-1.9.8l-1.9,1.5c-.7-.4-1.3,0-1.9,1.1l-1.9,1.1-1.9,1.5c-.7,0-1.3.4-1.9,1.1h-.2l-3.8,2.3-1.6,1.5-2.6,3.1-8.3,7.7-4.5,3.4c-.7,0-1.3.8-1.9,1.5l-4.2,3.8c-.3.4,0,.8.7,1.5l-1.9,1.9-2.2,1.5-1.9,1.9-4.2,5.4-1.3,1.1-1.9,3.1-1.3,1.5,1,.4c0,.8-.3,1.1-1.3,1.5l-3.8,5.4c-.7,1.1-1.3,2.3-1,3.1l-.3.8-1.3,1.5-3.5,8.5-.7,2.3-1.3,2.3-1.9,7.7v5l.3,2.3,1.9,4.6.7,2.3c0,.4.7.8,1.9.8v1.9l1.3,3.8v1.9c1,0,1.6.4,1.6,1.5l1.3,1.9.7,2.3,1.3,2.3,1,2.3.7,2.3,1.6,1.9,1,2.3,1.9,2.3.3,1.1,1,1.1,1.3,2.7,1.9,2.7,1-.8,1.9,2.3-.7,1.1,1.6,1.5,1.3-.4,1.9.4.3.4h1.6l1.3.8,1-.4c.3,0,.7.4,1,.8l1.3.4h3.5l1.6.4,1.6-.8h2.6l.7.4h1.9l1.9.8,1-.4.7.8,1.9.8h2.9l2.2-.4h1.6l2.9-.8-.7.8.7.4,5.1-2.3,6.4-1.5c1-.8,1.6-1.1,2.2-1.1l4.5-1.5c1.3,0,1.9-.4,2.2-1.1l1.9-1.5.7.4,1.6-1.1.7.4h.7l1.6-1.1h.3l1.9-.8h.7l1.9-1.1h.7c.3-.4,1-.8,1.6-.8l1.9-.8,5.5-3.4,1-1.1.3.4,1.6-1.1,1.6-.8,1.6-1.1c.7-1.1,1.3-1.5,1.6-1.5l1.9-1.1,3.2-3.1c1.9-1.5,2.6-3.4,2.2-5.7l1.3-1.1c-.3-1.5-.3-3.4.3-5.4-.7-.4-1-1.1-1-1.9l1.6-3.1c1-1.1,1.6-1.9,1.6-3.4l.7-.4.7-3.1,1.9-1.9c1-.8,1.6-1.5,2.2-1.5l4.8-5.4.7-2.3c0-.8.3-1.5.7-2.3-.3-.8-.3-1.1,0-1.5l-2.2-5ZM247.8,229.3h-.3l-2.6-2.7h-.7c-.7,0-1-.4-1.3-1.5l-.3-1.9h-.7l-1.3-.8h-.7c-1-.4-1.3,0-1.6.8h-.3c-1.3,0-1.6-.8-1.6-1.5-.7-.4-1,0-1,.4l-2.6-.8-1.6.4h-1v.8l-.7-.8-1,.4-.7-.4-1.6.8h-.1s-.7-.4-.7-.4l-5.8,2.3-.7-.4-3.8,1.5-1-.4-.7.8-1.9,1.1h-.3l-1.3.8h-3.2l-3.8.8-1.3.8h-1l-1.9.8-1.9.4c-.3-.4-1,0-1.6.8l-1.9.8c-1.3.4-2.2,1.1-2.9,2.7v7.7l-.3,2.7,1.3,3.1,1,6.5-.3,3.8-.3,1.9.3,2.3-.3,1.9.3,3.4-1,10.7.3,2.7h-.3c.7,1.1.7,1.9,0,2.7v6.2l-.3,2.3v2.3l-.3,2.3c.7,1.5.7,2.3,0,2.3l-1,5.7v2.3l-.3,2.3v2.7l-.3,2.3v6.5h-.3v3.1c-.3.8-.3,1.9-.3,3.1,1,2.3,1,4.6.3,6.9l1,2.3.3,2.7v5.7c0,1.1,0,1.5.3,1.9l1.9,5.7,2.9,4.6,2.9.8,2.9-.4c.7-.8,1.9-1.1,2.9-.8h.7l3.8-3.4,2.6-1.1h4.5l3.2-.8h.7c.7,0,1.3-.4,1.6-.8l1.9-2.7c0-1.1.7-2.3,1.6-3.4-.3-1.5.3-2.7,1-3.1h.7c-.3-1.5-.3-2.3,1-2.3l2.9-4.2,7.4-20.7c0-1.5.3-2.3.7-2.7l1-2.3,1.3-5.4,1-8.5.7-2.3.7-5,1.3-1.9-.3-2.7,2.9-7.7.7-2.7c0-.8,0-1.5.3-1.9l.7-4.2-.3-2.3c0-.8.3-1.5.7-2.3l.3-14.9-.3-2.3v-5.4l1.6-3.8v-1.9l-.3-1.9-1.9-3.1ZM370.6,169.3l-2.2-1.1-2.3-.4-.7-.4-1.6.8h-.7c-.7,0-1.3.4-1.9.8l-8.3,3.1-.3-.4-2.2,1.1-1-.4c-.3,0-1,.4-1.3.8l-1,.8-1-.4-4.2,1.9h-.3c-.3,0-1,.4-1.6.8-.3.8-1,1.1-1.9,1.1h-1l-2.6,1.1h-1c-.3,0-1,.4-1.3.8l-.7-.4-1.3,1.1-10,4.2h-.3l-3.8,1.9h-.7l-2.2.4h-.3c-.3,0-1,.4-1.9,1.1-.3.8-1,1.1-1.6,1.1h-.7l-5.1,2.3-1.6.4-1.6,1.1-1.6.8-1.6.4-3.2,2.3-3.2.4-3.5,1.5-1.6,1.5c-1,.4-1.6.8-1.6.8l-2.2.8-1.6,1.1c-.7.4-1.3.8-1.9,1.1l-1.9.8-1.3.8h-1l-1.3,1.1h-1l-1.6.8h-.3l-1.6,1.5c-.3,0-.7.4-1.3.8l.2-.3-3.2,1.9-7.7,2.3c-1,.4-1.6.8-1.9,1.5,0,1.1,0,1.5,1,1.9l-.3.8h-.3l.7,4.2.7,1.5.3,1.9c0,1.9.3,3.8,1,5.4l-2.6,3.8.7,1.9c0,.8,0,1.5.3,1.9l.3,3.8v1.5l-.7,1.9h-.7c1,1.1,1,2.3.3,3.4l-.3,3.1.3.8.3.4-1.6,1.1,1,2.7-.7,2.7.3,2.7-.7.8c1,1.1,1,1.9,0,2.7v9.2l1,3.1.3.4v-.4l.3.4,2.6-.8h2.6l2.2-1.1,7.7-1.5h1.9l.3.4,1.6-1.1h1.3l1-.4h1.6c.3-.8,1-1.1,1.3-.8l1.9.8v3.1c-.3.4-.3,1.5.3,3.1l-.7,1.9.3,1.9-.7,3.4-.3-.4v2.3l.7,3.4-.7,6.9c-.3,1.5-.7,2.7-.7,3.4l-.3,1.9c-.3.4-.3,1.1.3,1.9l.3,2.3v1.5l-.7,3.8v1.9l1.9,5,1.3,1.1,1.6-.4,1.3,1.1.7-.4,2.2-1.1v.4l1.6.4,3.2-1.1.3.8,1.9-.4,1.6-.8.3.4,1.6-.8c.7,0,1.3.4,1.9,1.1l.3.4h.3l2.2-1.5,4.2-6.9,2.6-1.5,3.2-5c1-1.5,1.6-2.3,1.9-2.7l1-1.1,1.3-2.3,1-2.3c.7-.4,1-1.1.7-1.9-.3-.4,0-.8.7-1.5,0,0,.3-.8,1-2.3.3-1.1.7-1.9,1-1.9l1.9-3.8c0-1.9.3-3.1.7-3.4l.7-3.1,1.9-5.7,1.6-2.3.3-1.5,1-1.9,1.9-5.4c.7-1.9,1.6-3.8,2.6-5.7l.3-1.9-.3-.8,1.9-3.8.7-1.9,1.3-1.9,1.9-1.1h.3l3.5-1.9c.7-.4,1.3-.8,1.6-1.1l1.9-1.1,1.6-1.5,2.2-.8c1,0,1.6-.4,1.9-1.1,1-.4,1.6-.8,2.2-1.1h.3l1.3-1.5,1.3-1.1c.3-.4,1-.8,1.6-1.1l2.2-2.7,1.3-6.5v-1.9c0-1.1.3-1.9.7-1.9l1.3-4.2,1-1.9-.7-1.5.7-.4v-.4l.7-4.6c0-.8.3-1.5.7-2.3,0-.8.3-1.5,1-1.9-.7-1.1-.7-1.9-.3-2.3l.7-1.5-.3-1.1v-2.7c0-.8.3-1.5.7-2.7l-1-2.3,1.3-6.1c.3-2.3.7-4.2,1.3-6.1-.3-.8,0-1.9.7-3.1.7-1.1.7-2.3,0-3.8-1-.4-1.3-1.1-1.3-2.7ZM496.1,145.8c-1.9-.4-3.2-1.1-3.8-2.7h-.7l-2.9-2.3-1.6-1.9-2.2-.8c-.3-.8-1-1.5-1.9-1.9l-1.9-.8-2.6-1.1-2.2-1.5v-.4h-.3l-1.6-.8-3.2-3.1-1.6-1.5v-.4c-1,0-1.3-.4-1.3-.8h-1.3c-.3,0-.9,0-1.3.8h0s0,0,0,0c0,0,0,0,0,0l-2.2,1.9-1.6,1.9-1.3,2.7-1.9,2.3c-1,1.1-1.3,2.3-1,3.1l-1.6,1.5c-.3,1.9-1,3.4-2.2,4.6l-10,17.3-1,1.9c-.7.4-1.3,1.1-1.3,2.3l-1,1.9-2.9,3.1-1.6,3.4-3.5-2.3-1.6-1.5-3.2-1.9-2.2-.8-1-1.1c-.7-.8-1-1.1-1.3-1.1h-.3l-1.6-1.1-.7.4c0-1.1,0-1.5-.7-1.1h-1l-2.6-2.3-1-.8-.3.4-4.2-3.8-1.6-1.9c-.3-.8-.7-1.1-1-1.1h-.3l-2.6-3.1-.7.4-.3-1.5-1.6-.4-.7-.4c-.7,0-1,.4-1.3.8l-1.3,1.9c-1,0-1.6.4-1.6,1.5l-2.2,2.3-.7.4-.7,1.1-3.5,3.1-1.6,1.9-2.2,3.4-1.3,1.5-1,1.9-.7,2.7-1,1.9-1.9.8.3.4-1.6,1.1-1.9,3.4-.7.8-.3,1.1h.3l-1.3,1.1c-1,1.1-1.6,2.3-1.6,3.4l1,1.9,1.9,1.9.7-.4,8.7,9.6.3.8,1,.4,4.2,5.4c.3,2.3,1.3,4.2,2.6,5.4v.4l.7.4,2.6,3.8,1.3.8.7,1.9,2.6,2.7h.7c0,1.5.3,2.3,1,2.7.7,1.1.7,2.3.3,3.1-.7,1.1-.7,2.3.3,3.4-1,1.1-1.3,2.3-1,3.4,0,2.3-.7,4.2-1.6,5.7l-.3.4-1.9,10.3-1,2.7-1.9,8.5-1,1.1-.3,4.2,1.3,10,1,3.4c0,1.5.7,2.3,1.6,2.7,0,.8.3.8,1,.8l3.5-1.9,2.6-1.1,1.9,1.1c.3-.8.7-.8,1.3-.8h3.2l1-.4c1,0,1.6-.4,2.3-.8,0-.8.7-1.1,1.6-1.1l1.9,1.1,1.6.8h2.2l2.2-.4c.7-.4,1.3.4,2.2,1.5l1.9,2.3,3.2-.4h.7l3.2-2.7c1-1.1,1.9-2.3,3.2-3.1l2.6-11.1,3.2-6.2,1.6-6.9,5.5-12.6,2.2-9.6,3.2-6.9,2.9-8,.7-2.3,1.6-4.6,4.2-5.7.7-1.9,2.6-5.4,3.8-7.3,1.3-1.9,1-2.3c.3-.8.7-1.1,1-1.1l1.6-1.1,1.3-2.3,1.6-1.5,1.3-2.7,6.7-10,1.9-4.2,1.9-2.7v-.8l2.6-2.7c0-2.3.7-4.2,1.9-6.2-.7-1.9-1.6-3.1-3.2-3.8Z"/>
</svg>